<mxfile host="app.diagrams.net" modified="2023-12-28T09:07:20.799Z" agent="Mozilla/5.0 (Windows NT 10.0; Win64; x64) AppleWebKit/537.36 (KHTML, like Gecko) Chrome/119.0.0.0 Safari/537.36 OPR/105.0.0.0 (Edition std-1)" version="22.1.15" etag="_QrjbDbr_lstSWvkvDeQ" type="github">
  <diagram name="Seite-1" id="v5x6MLQxr6hhbgvhWPQv">
    <mxGraphModel>
      <root>
        <mxCell id="0" />
        <mxCell id="1" parent="0" />
      </root>
    </mxGraphModel>
  </diagram>
</mxfile>
